<svg width="13" height="13" viewBox="0 0 13 13" fill="none" xmlns="http://www.w3.org/2000/svg">
<path d="M8.52797 0.187829C8.55018 0.201666 8.57355 0.217822 8.59459 0.232538C9.40707 0.951601 9.25277 2.20975 8.7419 3.09162C8.31754 3.91636 7.29347 4.68208 6.31849 4.32922C6.17821 4.27632 6.05546 4.18658 5.95609 4.08065C5.15998 3.11326 5.52939 1.64254 6.36642 0.749547C6.85391 0.139293 7.82888 -0.25164 8.52797 0.187829ZM12.4068 2.61577C12.9703 2.98027 13.0217 3.81942 12.7412 4.40663C12.1964 5.57744 10.7889 6.58667 9.42811 6.23093C9.30653 6.1891 9.19664 6.12444 9.10078 6.04325C8.42508 5.45281 8.68344 4.42401 9.18378 3.77217C9.82558 2.89869 11.0145 2.16273 12.1333 2.49133C12.2361 2.52241 12.3273 2.5642 12.4068 2.61577ZM3.91028 1.69677C4.86188 2.35967 4.86889 3.73853 4.33815 4.69742C4.01666 5.42596 3.05571 6.07689 2.25842 5.66452C1.20863 5.00365 1.2554 3.45941 1.88668 2.49154C2.25843 1.82259 3.17028 1.29333 3.91028 1.69677ZM12.4395 7.21249C12.8639 7.4669 13.1071 7.96651 12.9539 8.46783C12.5424 9.80923 10.8158 10.7728 9.4363 10.2646C8.87048 10.0399 8.68929 9.38831 8.88218 8.85532C9.29718 7.71707 10.6357 6.918 11.8702 7.04182C12.0795 7.05135 12.2747 7.11262 12.4395 7.21249ZM6.59671 6.49905C7.42322 7.00619 7.97735 7.92768 8.08724 8.86342C8.17024 9.9257 8.06854 11.0399 7.62898 12.0478C7.4057 12.8294 6.37694 13.2582 5.66617 12.8317C4.79992 12.3348 4.46557 11.3192 3.65075 10.7605C3.00779 10.2154 2.10996 10.1857 1.29865 10.0297C0.590212 9.92273 -0.107702 9.37159 0.0138779 8.62404C0.203261 7.90299 0.964308 7.47581 1.59676 7.11893C2.73657 6.60939 3.94535 6.07955 5.21258 6.10033C5.72579 6.10277 6.19339 6.2513 6.59671 6.49905Z" fill="#372121"/>
</svg>
